<?xml version="1.0" encoding="UTF-8" standalone="no"?>
<!DOCTYPE svg PUBLIC "-//W3C//DTD SVG 1.1//EN" "http://www.w3.org/Graphics/SVG/1.1/DTD/svg11.dtd">
<svg width="100%" height="100%" viewBox="0 0 2084 2084" version="1.1" xmlns="http://www.w3.org/2000/svg" xmlns:xlink="http://www.w3.org/1999/xlink" xml:space="preserve" xmlns:serif="http://www.serif.com/" style="fill-rule:evenodd;clip-rule:evenodd;stroke-linejoin:round;stroke-miterlimit:10;">
    <g transform="matrix(4.16667,0,0,4.16667,0,0)">
        <g transform="matrix(1.43548,0,0,1.43548,-27.2622,-5.51765)">
            <g id="Logo">
                <g transform="matrix(1.06084,0,0,1.06084,-254.136,-15.3199)">
                    <path d="M289.611,90.048C318.977,49.341 367.096,22.803 421.475,22.803C510.907,22.803 583.406,94.579 583.406,183.118C583.406,271.658 510.907,343.433 421.475,343.433C332.043,343.433 259.545,271.658 259.545,183.118C259.545,148.415 270.682,116.288 289.611,90.048" style="fill:rgb(245,211,250);fill-opacity:0.99;fill-rule:nonzero;stroke:rgb(182,81,225);stroke-width:4px;"/>
                </g>
                <g transform="matrix(1.06299,0,0,1.06299,-255.044,-19.3237)">
                    <path d="M418.11,38.302C419.48,38.302 420.713,41.11 421.809,46.727C422.357,49.535 423.954,55.837 423.954,55.837C423.954,55.837 419.228,46.245 414.026,47.616C410.214,48.619 409.891,53.234 409.891,55.152C409.891,57.069 410.919,59.946 412.973,63.782C415.028,67.617 416.878,70.426 418.521,72.207C420.165,73.987 421.604,75.289 422.836,76.111C424.069,76.933 425.371,76.933 426.741,76.111C428.11,75.289 429.823,73.85 431.878,71.796C433.932,69.741 435.645,67.549 437.015,65.22C438.385,62.891 439.206,61.111 439.48,59.878C439.754,58.645 441.194,53.773 437.631,50.22C434.068,46.667 431.118,48.152 428.324,51.215C425.967,53.799 424.936,55.835 424.936,55.835C424.936,55.835 425.782,52.069 426.33,46.727C426.878,41.384 427.768,38.645 429.001,38.508C430.234,38.371 431.672,38.508 433.316,38.919C434.96,39.33 436.535,40.015 438.042,40.973C439.549,41.932 440.919,43.165 442.152,44.672C443.385,46.179 444.138,48.371 444.412,51.247C444.686,54.124 444.549,56.59 444.001,58.645C443.453,60.7 441.741,63.987 438.864,68.508C435.987,73.028 433.384,76.179 431.056,77.96C428.727,79.741 426.398,80.494 424.069,80.22C421.741,79.946 420.028,79.467 418.932,78.782C417.836,78.097 416.467,76.933 414.823,75.289C413.179,73.645 411.535,71.659 409.891,69.33C408.247,67.001 407.014,64.604 406.192,62.138C405.371,59.672 404.96,56.795 404.96,53.508C404.96,50.22 405.165,48.028 405.576,46.932C405.987,45.836 406.877,44.535 408.247,43.028C409.617,41.521 411.261,40.357 413.179,39.535C415.097,38.713 416.741,38.302 418.11,38.302ZM382.562,58.645C389.275,59.056 393.521,59.741 395.302,60.7C397.083,61.658 398.727,62.823 400.234,64.193C401.74,65.563 403.179,67.343 404.549,69.535C405.919,71.727 406.672,73.234 406.809,74.056C406.946,74.878 406.398,75.494 405.165,75.905C403.932,76.316 402.836,77.138 401.877,78.371C400.918,79.604 400.371,80.974 400.234,82.481C400.097,83.987 400.234,85.7 400.644,87.618C401.055,89.535 401.657,90.764 401.657,90.764C401.657,90.764 404.823,89.535 406.192,88.44C407.562,87.344 408.521,86.111 409.069,84.741C409.617,83.371 409.96,81.864 410.097,80.22C410.165,79.398 410.234,78.576 410.302,77.754C411.056,77.891 411.809,78.028 412.562,78.166C414.069,78.439 415.234,78.85 416.056,79.398C416.878,79.946 417.425,80.426 417.699,80.837C417.973,81.248 418.11,82.618 418.11,84.946C418.11,87.275 417.973,88.988 417.699,90.083C417.425,91.179 416.878,92.823 416.056,95.015C415.234,97.207 414.275,99.125 413.179,100.768C412.083,102.412 410.987,103.508 409.891,104.056C408.795,104.604 407.768,104.81 406.809,104.673C405.85,104.536 404.823,103.782 403.727,102.412C402.631,101.042 401.672,99.33 400.85,97.275C400.028,95.22 399.069,93.371 397.973,91.727C396.877,90.083 394.686,87.755 391.398,84.741C388.11,81.727 386.055,78.987 386.055,78.987C386.055,78.987 387.631,78.028 388.316,76.933C389.001,75.837 389.343,74.604 389.343,73.234C389.343,71.864 388.864,70.083 387.905,67.891C386.946,65.7 386.192,64.33 385.644,63.782C385.096,63.234 384.206,63.302 382.973,63.987C381.74,64.672 380.781,65.563 380.096,66.659C379.411,67.754 379.069,68.85 379.069,69.946C379.069,71.042 379.343,72.412 379.891,74.056C380.165,74.878 380.439,75.7 380.713,76.522C379.891,75.974 379.069,75.426 378.247,74.878C376.603,73.782 374.617,72.07 372.288,69.741C369.959,67.412 368.589,65.837 368.178,65.015C367.768,64.193 367.562,63.165 367.562,61.932C367.562,60.7 368.384,59.741 370.028,59.056C371.672,58.371 375.85,58.234 382.562,58.645ZM471.741,64.193C472.7,64.193 473.59,64.398 474.412,64.809C475.234,65.22 476.604,66.111 478.522,67.48C480.44,68.85 481.604,69.946 482.015,70.768C482.426,71.59 479.823,73.919 474.207,77.754C468.59,81.59 464.686,83.987 462.494,84.946C461.398,85.426 460.303,85.905 459.207,86.385C459.138,86.042 459.07,85.7 459.001,85.357C458.864,84.672 459.07,83.919 459.618,83.097C460.166,82.275 460.371,81.385 460.234,80.426C460.097,79.467 459.618,78.439 458.796,77.344C457.974,76.248 457.015,75.426 455.919,74.878C455.371,74.604 454.823,74.33 454.275,74.056C454.001,74.672 453.727,75.289 453.453,75.905C452.905,77.138 452.631,78.645 452.631,80.426C452.631,82.207 452.905,83.645 453.453,84.741C454.001,85.837 454.618,86.659 455.302,87.207C455.987,87.755 456.33,88.508 456.33,89.467C456.33,90.426 455.85,91.59 454.892,92.96C453.933,94.33 452.22,95.905 449.754,97.686C447.289,99.467 445.782,100.494 445.234,100.768C444.686,101.042 443.933,101.111 442.974,100.974C442.015,100.837 441.672,99.399 441.946,96.659C442.22,93.919 441.809,91.385 440.713,89.056C439.617,86.727 438.727,85.494 438.042,85.357C437.357,85.22 436.809,85.974 436.398,87.618C435.987,89.261 435.782,91.316 435.782,93.782C435.782,96.248 436.398,98.234 437.631,99.741C438.864,101.248 439.412,103.303 439.275,105.905C439.138,108.508 437.494,112.892 434.343,119.056C431.193,125.221 429.275,128.645 428.59,129.33C427.905,130.015 426.946,130.221 425.713,129.947C424.48,129.673 422.973,128.44 421.193,126.248C419.412,124.056 417.973,121.316 416.878,118.029C415.782,114.741 415.234,111.316 415.234,107.755C415.234,104.193 415.576,101.727 416.261,100.357C416.946,98.988 418.042,97.481 419.549,95.837C421.056,94.193 422.22,93.166 423.042,92.755C423.453,92.549 423.864,92.344 424.275,92.138C423.932,94.193 423.59,96.248 423.247,98.303C422.562,102.412 422.631,105.768 423.453,108.371C424.275,110.974 425.028,112.823 425.713,113.919C426.398,115.015 427.015,115.7 427.563,115.974C428.11,116.248 428.795,115.7 429.617,114.33C430.439,112.96 430.987,111.522 431.261,110.015C431.535,108.508 431.535,106.522 431.261,104.056C430.987,101.59 430.302,98.851 429.206,95.837C428.11,92.823 427.563,91.042 427.563,90.494C427.563,89.946 427.973,89.056 428.795,87.823C429.617,86.59 431.535,84.467 434.549,81.453C437.563,78.439 440.439,75.905 443.179,73.85C445.919,71.796 449.001,70.015 452.426,68.508C455.85,67.001 459.686,65.905 463.933,65.22C468.179,64.535 470.782,64.193 471.741,64.193ZM351.534,68.302C351.808,68.85 351.261,69.946 349.891,71.59C348.521,73.234 347.836,75.152 347.836,77.344C347.836,79.535 347.973,80.974 348.247,81.659C348.521,82.344 349.48,85.48 349.48,85.48C349.48,85.48 353.521,83.165 354.206,81.659C354.891,80.152 355.096,77.96 354.822,75.083C354.548,72.207 354.617,70.7 355.028,70.563C355.439,70.426 355.918,70.631 356.466,71.179C357.014,71.727 357.767,73.165 358.726,75.494C359.685,77.823 360.37,80.768 360.781,84.33C361.192,87.892 361.877,91.042 362.836,93.782C363.795,96.522 365.165,99.193 366.946,101.796C368.726,104.399 371.124,107.207 374.137,110.221C375.644,111.727 377.151,113.234 378.658,114.741C376.809,114.399 374.959,114.056 373.11,113.714C369.411,113.029 366.261,112.207 363.658,111.248C361.055,110.289 358.384,109.056 355.644,107.549C352.904,106.042 350.37,104.399 348.041,102.618C345.713,100.837 344.48,99.741 344.343,99.33C344.206,98.919 344.274,98.645 344.548,98.508C344.822,98.371 345.987,98.44 348.041,98.714C350.096,98.988 351.466,98.988 352.151,98.714C352.836,98.44 353.863,97.412 355.233,95.631C356.603,93.851 356.877,91.933 356.877,91.933C356.877,91.933 355.302,90.905 352.973,90.905C350.644,90.905 348.589,91.796 346.808,93.577C345.028,95.357 343.521,96.248 342.288,96.248C341.055,96.248 340.302,96.111 340.028,95.837C339.754,95.563 339.206,94.056 338.384,91.316C337.562,88.577 337.151,85.974 337.151,83.508C337.151,81.042 337.425,78.713 337.973,76.522C338.521,74.33 339,72.96 339.411,72.412C339.822,71.864 341.877,70.905 345.576,69.535C349.274,68.165 351.261,67.754 351.534,68.302ZM362.63,67.48C363.247,67.686 363.863,67.891 364.48,68.097C365.713,68.508 369.411,71.453 375.576,76.933C381.74,82.412 385.028,85.631 385.439,86.59C385.85,87.549 386.877,88.919 388.521,90.7C390.165,92.481 390.987,93.577 390.987,93.988L390.987,94.604C388.795,93.988 386.603,93.371 384.411,92.755C380.028,91.522 377.768,91.111 377.631,91.522C377.494,91.933 377.699,92.686 378.247,93.782C378.795,94.878 379.754,96.316 381.124,98.097C382.494,99.878 383.727,101.042 384.822,101.59C385.918,102.138 387.288,102.275 388.932,102.001C390.576,101.727 391.877,101.248 392.836,100.563C393.316,100.22 393.795,99.878 394.275,99.536C397.22,104.056 400.165,108.577 403.11,113.097C409.001,122.138 412.836,128.645 414.617,132.618C416.398,136.591 417.425,139.673 417.699,141.865C417.973,144.056 418.11,146.796 418.11,150.084C418.11,153.372 417.836,155.563 417.288,156.659C416.741,157.755 415.919,158.783 414.823,159.741C413.727,160.7 411.535,161.385 408.247,161.796C404.96,162.207 401.535,161.933 397.973,160.974C394.412,160.015 391.74,159.536 389.959,159.536C388.179,159.536 386.398,159.878 384.617,160.563C382.836,161.248 381.261,161.591 379.891,161.591C378.521,161.591 377.288,161.385 376.192,160.974C375.096,160.563 372.699,158.577 369,155.015C365.302,151.454 363.384,149.125 363.247,148.029C363.11,146.933 363.315,146.111 363.863,145.563C364.411,145.015 367.357,144.399 372.699,143.714C378.042,143.029 381.535,142.755 383.179,142.892C384.822,143.029 385.713,143.371 385.85,143.919C385.987,144.467 385.37,145.426 384.001,146.796C382.631,148.166 381.877,149.399 381.74,150.495C381.603,151.591 381.946,153.098 382.768,155.015C383.59,156.933 384.343,157.961 385.028,158.098C385.713,158.235 386.74,157.139 388.11,154.81C389.48,152.481 390.165,150.837 390.165,149.878C390.165,148.919 389.891,148.166 389.343,147.618C388.795,147.07 388.658,145.906 388.932,144.125C389.206,142.344 389.685,140.906 390.37,139.81C391.055,138.714 392.425,137.207 394.48,135.289C396.535,133.371 398.042,132.481 399.001,132.618C399.96,132.755 400.439,134.056 400.439,136.522C400.439,138.988 400.987,141.111 402.083,142.892C403.179,144.673 404.412,146.111 405.782,147.207C407.151,148.303 408.042,148.714 408.453,148.44C408.864,148.166 409.069,147.755 409.069,147.207C409.069,146.659 408.864,144.878 408.453,141.865C408.042,138.851 407.562,136.728 407.014,135.495C406.466,134.262 405.302,132.892 403.521,131.385C401.74,129.878 400.371,128.303 399.412,126.659C398.453,125.015 397.425,123.645 396.329,122.549C395.233,121.453 393.11,119.81 389.959,117.618C386.809,115.426 385.233,114.125 385.233,113.714C385.233,113.303 386.329,112.96 388.521,112.686C390.713,112.412 392.083,111.933 392.631,111.248C393.179,110.563 393.59,109.673 393.864,108.577C394.138,107.481 394.069,106.727 393.658,106.316C393.247,105.905 391.946,105.837 389.754,106.111C387.562,106.385 386.261,106.864 385.85,107.549C385.439,108.234 385.233,109.056 385.233,110.015C385.233,110.974 384.891,111.659 384.206,112.07C383.521,112.481 382.357,111.796 380.713,110.015C379.069,108.234 377.494,106.796 375.987,105.7C374.48,104.604 373.179,103.234 372.083,101.59C370.987,99.947 369.617,96.933 367.973,92.549C366.329,88.165 365.507,85.22 365.507,83.713C365.507,82.207 365.028,79.124 364.069,74.467C363.589,72.138 363.11,69.809 362.63,67.48ZM506.467,74.467C509.207,75.289 511.262,76.042 512.632,76.727C514.002,77.412 514.824,78.028 515.097,78.576C515.371,79.124 515.166,79.878 514.481,80.837C513.796,81.796 512.7,84.33 511.193,88.44C509.686,92.549 507.632,94.672 505.029,94.809C502.426,94.946 500.508,95.22 499.275,95.631C498.043,96.042 496.467,97.07 494.549,98.714C492.632,100.357 491.536,101.59 491.262,102.412C490.988,103.234 491.399,103.851 492.495,104.262C493.59,104.673 495.303,104.878 497.632,104.878C499.96,104.878 501.878,104.467 503.385,103.645C504.892,102.823 505.645,102.275 505.645,102.001L505.645,101.59L507.289,101.59C507.152,101.864 507.015,102.138 506.878,102.412C506.604,102.96 505.234,104.262 502.769,106.316C500.303,108.371 496.193,110.837 490.44,113.714C484.686,116.59 479.07,118.851 473.59,120.495C470.851,121.316 468.111,122.138 465.371,122.96C465.44,122.686 465.508,122.412 465.577,122.138C465.714,121.59 468.248,119.056 473.179,114.536C478.111,110.015 481.262,106.864 482.631,105.083C484.001,103.303 485.371,100.905 486.741,97.892C488.111,94.878 489.138,91.933 489.823,89.056C490.508,86.179 490.919,83.577 491.056,81.248C491.193,78.919 491.604,77.207 492.289,76.111C492.974,75.015 493.59,74.33 494.138,74.056C494.686,73.782 495.44,73.713 496.399,73.85C496.878,73.919 497.358,73.987 497.837,74.056C497.495,74.946 497.152,75.837 496.81,76.727C496.125,78.508 495.782,80.494 495.782,82.686C495.782,84.878 496.193,87.07 497.015,89.261C497.426,90.357 497.837,91.453 498.248,92.549C498.591,92.412 498.933,92.275 499.275,92.138C499.96,91.864 500.988,90.426 502.358,87.823C503.728,85.22 504.275,82.96 504.002,81.042C503.728,79.124 503.248,77.481 502.563,76.111C501.878,74.741 501.673,73.919 501.947,73.645C502.221,73.371 503.728,73.645 506.467,74.467ZM330.164,75.7C330.712,75.7 331.192,76.385 331.603,77.754C332.014,79.124 332.219,82.07 332.219,86.59C332.219,91.111 332.014,95.494 331.603,99.741C331.192,103.988 330.096,107.207 328.315,109.399C326.534,111.59 325.233,112.892 324.411,113.303C323.589,113.714 322.288,114.125 320.507,114.536C318.726,114.947 316.74,115.084 314.548,114.947C312.356,114.81 310.644,114.125 309.411,112.892C308.178,111.659 307.493,109.81 307.356,107.344C307.219,104.878 307.425,102.686 307.972,100.768C308.52,98.851 309.616,96.659 311.26,94.193C312.904,91.727 314.068,90.289 314.753,89.878C315.096,89.672 315.438,89.467 315.781,89.261C315.918,90.426 316.055,91.59 316.192,92.755C316.466,95.083 317.63,97.344 319.685,99.536C321.74,101.727 323.315,103.029 324.411,103.44C324.959,103.645 325.507,103.851 326.055,104.056L326.055,97.892C326.055,93.782 325.575,91.179 324.616,90.083C323.658,88.988 322.63,88.165 321.534,87.618C320.438,87.07 319.753,86.385 319.479,85.563C319.205,84.741 319.479,83.713 320.301,82.481C321.123,81.248 322.288,80.289 323.795,79.604C325.301,78.919 326.603,78.097 327.699,77.138C328.795,76.179 329.617,75.7 330.164,75.7ZM482.631,77.754C483.727,77.754 484.618,78.166 485.303,78.987C485.988,79.809 486.399,81.727 486.536,84.741C486.673,87.755 486.399,90.426 485.714,92.755C485.029,95.083 484.07,97.275 482.837,99.33C481.604,101.385 479.481,103.988 476.467,107.138C473.453,110.289 470.303,112.892 467.015,114.947C463.727,117.001 461.535,118.166 460.44,118.44C459.344,118.714 458.042,118.371 456.535,117.412C455.029,116.453 453.659,115.974 452.426,115.974C451.193,115.974 449.549,116.522 447.494,117.618C446.467,118.166 445.439,118.714 444.412,119.262C444.617,119.604 444.823,119.947 445.028,120.289C445.439,120.974 446.604,121.796 448.522,122.755C450.439,123.714 451.878,124.262 452.837,124.399C453.796,124.536 454.823,124.399 455.919,123.988C456.467,123.782 457.015,123.577 457.563,123.371L457.563,123.782C457.563,124.056 454.96,126.111 449.754,129.947C444.549,133.782 441.946,135.837 441.946,136.111C441.946,136.385 440.713,137.207 438.248,138.577C435.782,139.947 434.275,140.495 433.727,140.221C433.179,139.947 433.111,138.097 433.521,134.673C433.932,131.248 435.85,126.043 439.275,119.056C442.7,112.07 444.96,107.96 446.056,106.727C447.152,105.494 448.522,104.33 450.165,103.234C451.809,102.138 453.111,101.522 454.07,101.385C455.029,101.248 456.261,101.453 457.768,102.001C459.275,102.549 461.33,102.823 463.933,102.823C466.535,102.823 469.07,102.07 471.535,100.563C474.001,99.056 475.988,97.618 477.494,96.248C479.001,94.878 479.755,93.851 479.755,93.166C479.755,92.481 478.042,92.001 474.618,91.727C471.193,91.453 468.179,91.796 465.577,92.755C462.974,93.714 461.467,94.193 461.056,94.193L460.44,94.193L460.44,93.782C460.44,93.508 461.741,92.001 464.344,89.261C466.946,86.522 470.371,83.919 474.618,81.453C478.864,78.987 481.536,77.754 482.631,77.754ZM521.673,83.919C523.043,83.919 524.824,85.494 527.015,88.645C529.207,91.796 530.303,93.645 530.303,94.193C530.303,94.741 529.824,95.426 528.865,96.248C527.906,97.07 527.015,98.44 526.193,100.357C525.372,102.275 525.029,104.878 525.166,108.166C525.235,109.81 525.303,111.453 525.372,113.097C525.851,112.96 526.33,112.823 526.81,112.686C527.769,112.412 528.933,111.59 530.303,110.221C531.673,108.851 532.7,107.481 533.385,106.111C534.07,104.741 534.413,103.097 534.413,101.179L534.413,98.303L535.235,98.303C535.783,98.303 536.673,98.714 537.906,99.536C539.139,100.357 540.714,101.864 542.632,104.056C544.55,106.248 545.851,108.234 546.536,110.015C547.221,111.796 547.564,113.303 547.564,114.536C547.564,115.769 547.221,117.001 546.536,118.234C545.851,119.467 544.961,120.426 543.865,121.111C542.769,121.796 541.125,122.275 538.933,122.549C537.837,122.686 536.742,122.823 535.646,122.96C535.851,122.275 536.057,121.59 536.262,120.906C536.673,119.536 536.878,117.549 536.878,114.947C536.878,112.344 536.742,110.974 536.468,110.837C536.194,110.7 535.577,110.837 534.618,111.248C533.659,111.659 532.7,112.412 531.741,113.508C530.783,114.604 530.44,116.522 530.714,119.262C530.851,120.632 530.988,122.001 531.125,123.371C529.687,123.166 528.248,122.96 526.81,122.755C523.933,122.344 521.467,121.727 519.413,120.906C517.358,120.084 516.399,114.604 516.536,104.467C516.673,94.33 516.947,88.577 517.358,87.207C517.769,85.837 518.248,84.946 518.796,84.535C519.344,84.124 520.303,83.919 521.673,83.919ZM335.507,100.768C336.466,101.248 337.425,101.727 338.384,102.207C340.302,103.166 341.466,103.988 341.877,104.673C342.288,105.357 343.315,106.316 344.959,107.549C346.603,108.782 348.521,110.015 350.713,111.248C352.904,112.481 356.877,113.782 362.63,115.152C368.384,116.522 373.315,118.097 377.425,119.878C381.535,121.659 384.891,123.645 387.494,125.837C390.096,128.029 390.987,130.152 390.165,132.207C389.343,134.262 388.59,135.7 387.905,136.522C387.22,137.344 386.466,137.823 385.644,137.96C384.822,138.097 384.206,137.07 383.795,134.878C383.384,132.686 382.357,130.906 380.713,129.536C379.069,128.166 377.288,127.138 375.37,126.454C374.411,126.111 373.452,125.769 372.494,125.426C372.905,126.933 373.315,128.44 373.726,129.947C374.548,132.96 375.37,135.015 376.192,136.111C377.014,137.207 378.179,138.234 379.685,139.193C380.439,139.673 381.192,140.152 381.946,140.632C380.165,140.563 378.384,140.495 376.603,140.426C373.042,140.289 369.959,140.495 367.357,141.043C364.754,141.591 363.315,141.591 363.041,141.043C362.767,140.495 363.11,139.741 364.069,138.782C365.028,137.823 365.507,136.385 365.507,134.467C365.507,132.549 364.617,129.33 362.836,124.81C361.055,120.289 359.891,117.96 359.343,117.823C358.795,117.686 358.11,118.371 357.288,119.878C356.466,121.385 356.055,123.577 356.055,126.454C356.055,129.33 356.603,132.207 357.699,135.084C358.795,137.96 359.343,139.741 359.343,140.426C359.343,141.111 359.206,141.522 358.932,141.659C358.658,141.796 357.562,140.769 355.644,138.577C353.726,136.385 352.288,134.33 351.329,132.412C350.37,130.495 348.041,127.412 344.343,123.166C340.644,118.919 338.247,115.905 337.151,114.125C336.055,112.344 335.301,110.084 334.891,107.344C334.48,104.604 334.48,102.823 334.891,102.001C335.096,101.59 335.301,101.179 335.507,100.768ZM510.988,107.344C511.81,107.618 512.289,108.371 512.426,109.604C512.563,110.837 511.536,114.467 509.344,120.495C507.152,126.522 505.303,130.221 503.796,131.591C503.043,132.275 502.289,132.96 501.536,133.645C501.125,132.412 500.714,131.18 500.303,129.947C499.481,127.481 498.522,125.769 497.426,124.81C496.33,123.851 495.166,123.371 493.933,123.371C492.7,123.371 491.947,123.988 491.673,125.221C491.399,126.454 491.33,127.892 491.467,129.536C491.604,131.18 492.084,132.481 492.906,133.44C493.727,134.399 494.618,135.084 495.577,135.495C496.536,135.906 497.015,136.317 497.015,136.728C497.015,137.139 496.673,137.55 495.988,137.96C495.303,138.371 493.933,139.947 491.878,142.687C489.823,145.426 487.837,147.687 485.919,149.467C484.001,151.248 481.536,153.029 478.522,154.81C475.508,156.591 473.042,157.824 471.125,158.509C469.207,159.194 464.96,160.015 458.385,160.974C451.809,161.933 447.837,162.824 446.467,163.646C445.097,164.468 442.974,166.248 440.097,168.988C437.22,171.728 435.508,173.098 434.96,173.098C434.412,173.098 433.795,172.824 433.111,172.276C432.426,171.728 431.878,170.974 431.467,170.016C431.056,169.057 430.85,166.043 430.85,160.974C430.85,155.906 431.056,152.687 431.467,151.317C431.878,149.947 433.042,148.029 434.96,145.563C436.878,143.097 438.59,141.522 440.097,140.837C441.604,140.152 442.357,139.673 442.357,139.399C442.357,139.125 443.796,138.029 446.672,136.111C448.111,135.152 449.549,134.193 450.987,133.234C450.85,135.084 450.713,136.933 450.576,138.782C450.302,142.481 450.371,144.878 450.782,145.974C451.193,147.07 452.289,148.577 454.07,150.495C455.85,152.413 457.357,153.577 458.59,153.988C459.207,154.193 459.823,154.399 460.44,154.604C460.85,153.372 461.261,152.139 461.672,150.906C462.494,148.44 462.768,146.248 462.494,144.33C462.22,142.413 461.741,140.906 461.056,139.81C460.371,138.714 458.864,137.07 456.535,134.878C455.371,133.782 454.207,132.686 453.042,131.591C458.042,130.015 463.042,128.44 468.042,126.864C478.042,123.714 487.495,119.604 496.399,114.536C505.303,109.467 510.166,107.07 510.988,107.344ZM321.123,115.974L322.356,115.974L322.356,116.385C322.356,116.659 321.877,117.001 320.918,117.412C319.959,117.823 319.479,118.371 319.479,119.056C319.479,119.741 320.027,120.974 321.123,122.755C322.219,124.536 323.247,125.289 324.206,125.015C325.164,124.741 326.055,124.125 326.877,123.166C327.699,122.207 328.11,121.316 328.11,120.495C328.11,119.673 327.699,118.782 326.877,117.823C326.466,117.344 326.055,116.864 325.644,116.385C326.534,116.316 327.425,116.248 328.315,116.179C330.096,116.042 331.877,116.522 333.658,117.618C335.438,118.714 337.014,120.221 338.384,122.138C339.754,124.056 340.439,125.358 340.439,126.043C340.439,126.727 340.028,127.275 339.206,127.686C338.384,128.097 336.603,128.371 333.863,128.508C331.123,128.645 327.63,128.44 323.384,127.892C319.137,127.344 316.466,126.591 315.37,125.632C314.274,124.673 313.52,123.577 313.11,122.344C312.699,121.111 313.726,119.741 316.192,118.234C318.658,116.727 320.301,115.974 321.123,115.974ZM305.301,121.111C305.986,121.248 306.808,123.577 307.767,128.097C308.726,132.618 309.89,135.974 311.26,138.166C312.63,140.358 313.315,142.276 313.315,143.919C313.315,145.563 312.904,146.865 312.082,147.824C311.26,148.782 309.137,149.673 305.712,150.495C302.288,151.317 299.479,151.659 297.287,151.522C295.096,151.385 293.109,150.974 291.329,150.289C289.548,149.604 288.383,148.714 287.835,147.618C287.287,146.522 287.013,145.495 287.013,144.536C287.013,143.577 287.493,141.728 288.452,138.988C289.411,136.248 290.027,134.878 290.301,134.878C290.575,134.878 291.26,136.317 292.356,139.193C293.452,142.07 294.548,144.056 295.644,145.152C296.74,146.248 298.315,146.865 300.37,147.002C302.424,147.139 304.137,146.865 305.507,146.18C306.877,145.495 307.562,144.536 307.562,143.303C307.562,142.07 307.356,140.974 306.945,140.015C306.534,139.056 305.507,137.823 303.863,136.317C302.219,134.81 300.164,133.508 297.698,132.412C295.233,131.317 294,130.563 294,130.152C294,129.741 294.89,128.645 296.671,126.864C298.452,125.084 300.164,123.645 301.808,122.549C303.452,121.453 304.616,120.974 305.301,121.111ZM519.413,127.07C521.193,127.344 522.358,127.755 522.906,128.303C523.454,128.851 523.865,129.947 524.139,131.591C524.413,133.234 524.413,134.193 524.139,134.467C523.865,134.741 522.7,134.81 520.645,134.673C518.591,134.536 517.084,134.673 516.125,135.084C515.166,135.495 513.796,136.659 512.015,138.577C510.234,140.495 509.207,141.865 508.933,142.687C508.796,143.097 508.659,143.508 508.522,143.919C508.865,143.988 509.207,144.056 509.549,144.125C510.234,144.262 511.536,144.125 513.454,143.714C515.371,143.303 517.084,142.755 518.591,142.07C520.098,141.385 521.399,140.563 522.495,139.604C523.591,138.645 524.413,138.166 524.961,138.166L525.783,138.166L525.783,143.097C525.783,146.385 525.098,149.262 523.728,151.728C522.358,154.193 520.166,156.659 517.152,159.125C515.645,160.358 514.139,161.591 512.632,162.824C511.467,161.043 510.303,159.262 509.139,157.481C506.81,153.92 505.097,151.796 504.002,151.111C502.906,150.426 501.193,149.947 498.864,149.673C496.536,149.399 495.371,148.782 495.371,147.824C495.371,146.865 495.714,145.837 496.399,144.741C497.084,143.645 499.481,141.043 503.591,136.933C507.7,132.823 510.919,130.084 513.248,128.714C515.577,127.344 517.632,126.796 519.413,127.07ZM545.509,126.864C546.194,126.933 546.879,127.001 547.564,127.07C546.947,127.618 546.331,128.166 545.714,128.714C544.481,129.81 542.974,131.796 541.194,134.673C539.413,137.55 538.385,140.563 538.111,143.714C537.974,145.289 537.837,146.865 537.7,148.44L538.522,148.44C539.07,148.44 540.783,147.002 543.659,144.125C546.536,141.248 548.317,139.193 549.002,137.96C549.687,136.728 550.235,134.947 550.646,132.618C550.851,131.454 551.057,130.289 551.262,129.125C551.536,129.33 551.81,129.536 552.084,129.741C552.632,130.152 553.454,131.659 554.55,134.262C555.646,136.865 556.125,139.604 555.988,142.481C555.851,145.358 555.303,148.029 554.344,150.495C553.385,152.961 552.564,154.604 551.879,155.426C551.194,156.248 550.851,157.002 550.851,157.687C550.851,158.372 550.166,159.536 548.796,161.18C547.427,162.824 545.44,164.468 542.837,166.111C540.235,167.755 538.385,168.783 537.289,169.194C536.194,169.605 534.961,169.81 533.591,169.81C532.221,169.81 530.44,168.92 528.248,167.139C526.056,165.358 524.824,163.646 524.55,162.002C524.276,160.358 524.824,158.372 526.193,156.043C527.563,153.714 528.728,151.18 529.687,148.44C530.646,145.7 531.194,142.413 531.331,138.577C531.467,134.741 532.084,132.275 533.18,131.18C534.276,130.084 536.262,129.056 539.139,128.097C542.016,127.138 544.139,126.727 545.509,126.864ZM339.206,132.207C341.123,132.618 342.493,133.166 343.315,133.851C344.137,134.536 344.548,135.7 344.548,137.344C344.548,138.988 344.206,140.837 343.521,142.892C342.836,144.947 341.397,147.961 339.206,151.933C337.014,155.906 335.301,158.509 334.069,159.741C332.836,160.974 331.74,161.659 330.781,161.796C329.822,161.933 328.795,161.248 327.699,159.741C326.603,158.235 325.507,155.906 324.411,152.755C323.315,149.604 321.808,146.591 319.89,143.714C317.973,140.837 316.877,138.508 316.603,136.728C316.329,134.947 316.329,133.851 316.603,133.44C316.877,133.029 317.493,132.686 318.452,132.412C319.411,132.139 321.123,132.139 323.589,132.412C326.055,132.686 327.425,133.097 327.699,133.645C327.973,134.193 327.767,134.878 327.082,135.7C326.397,136.522 326.192,137.755 326.466,139.399C326.74,141.043 327.288,142.207 328.11,142.892C328.932,143.577 330.644,144.33 333.247,145.152C335.849,145.974 337.425,146.111 337.973,145.563C338.521,145.015 338.726,144.193 338.589,143.097C338.452,142.002 337.425,140.289 335.507,137.96C333.589,135.632 332.63,134.193 332.63,133.645C332.63,133.097 333.247,132.618 334.48,132.207C335.712,131.796 337.288,131.796 339.206,132.207ZM349.069,143.097C349.617,143.097 350.781,143.851 352.562,145.358C353.452,146.111 354.343,146.865 355.233,147.618C354.411,148.029 353.589,148.44 352.767,148.851C351.124,149.673 349.685,150.632 348.452,151.728C347.219,152.824 346.123,154.399 345.165,156.454C344.206,158.509 343.521,160.426 343.11,162.207C342.699,163.988 342.562,165.221 342.699,165.906C342.767,166.248 342.836,166.591 342.904,166.933C344,166.728 345.096,166.522 346.192,166.317C348.384,165.906 350.028,165.358 351.124,164.673C352.219,163.988 353.315,162.824 354.411,161.18C355.507,159.536 356.329,157.481 356.877,155.015C357.425,152.55 357.904,151.317 358.315,151.317C358.726,151.317 359.274,151.865 359.959,152.961C360.644,154.056 362.083,155.7 364.274,157.892C366.466,160.084 368.726,162.002 371.055,163.646C373.384,165.289 374.548,166.522 374.548,167.344C374.548,168.166 370.096,168.92 361.192,169.605C352.288,170.29 346.329,170.632 343.315,170.632C340.302,170.632 338.11,170.358 336.74,169.81C335.37,169.262 334.685,168.646 334.685,167.961C334.685,167.276 334.959,166.591 335.507,165.906C336.055,165.221 336.534,164.194 336.945,162.824C337.356,161.454 337.699,160.769 337.973,160.769C338.247,160.769 338.589,160.289 339,159.331C339.411,158.372 340.986,156.111 343.726,152.55C346.466,148.988 347.904,146.522 348.041,145.152C348.178,143.782 348.521,143.097 349.069,143.097ZM315.164,149.467C316.123,149.604 317.082,150.495 318.041,152.139C319,153.783 319.479,156.317 319.479,159.741C319.479,163.166 319.137,165.769 318.452,167.55C317.767,169.331 316.945,170.495 315.986,171.043C315.027,171.591 312.082,172.207 307.151,172.892C302.219,173.577 297.835,174.468 294,175.564C290.164,176.659 287.082,177.892 284.753,179.262C282.424,180.632 280.643,182.002 279.411,183.372C278.178,184.742 277.424,185.906 277.15,186.865C276.876,187.824 276.534,188.372 276.123,188.509C275.712,188.646 274.616,186.728 274.479,184.399C274.342,182.07 274.548,178.646 275.096,174.125C275.369,171.865 275.643,169.605 275.917,167.344C277.424,168.098 278.931,168.851 280.438,169.605C283.452,171.111 286.397,172.002 289.274,172.276C292.15,172.55 294.753,172.413 297.082,171.865C299.411,171.317 302.356,170.153 305.918,168.372C307.699,167.481 309.479,166.591 311.26,165.7C310.781,165.221 310.301,164.742 309.822,164.262C308.863,163.303 306.466,162.276 302.63,161.18C298.794,160.084 295.37,159.673 292.356,159.947C289.342,160.221 285.918,160.974 282.082,162.207C280.164,162.824 278.246,163.44 276.328,164.057C276.534,162.55 276.739,161.043 276.945,159.536C277.356,156.522 277.904,154.262 278.589,152.755C279.274,151.248 280.37,150.495 281.876,150.495C283.383,150.495 285.301,151.317 287.63,152.961C289.959,154.604 292.356,155.632 294.822,156.043C297.287,156.454 299.274,156.454 300.781,156.043C302.288,155.632 304.205,154.604 306.534,152.961C308.863,151.317 310.644,150.289 311.877,149.878C313.11,149.467 314.205,149.33 315.164,149.467ZM498.248,154.604C499.892,154.604 501.399,155.084 502.769,156.043C504.138,157.002 505.577,159.399 507.084,163.235C508.591,167.07 509.344,169.399 509.344,170.221C509.344,171.043 508.865,172.276 507.906,173.92C506.947,175.564 506.262,177.276 505.851,179.057C505.44,180.838 504.823,182.481 504.002,183.988C503.18,185.495 502.358,186.591 501.536,187.276C500.714,187.961 498.864,188.303 495.988,188.303C493.111,188.303 490.234,187.55 487.358,186.043C484.481,184.536 480.234,181.796 474.618,177.824C469.001,173.851 465.508,171.111 464.138,169.605C462.768,168.098 462.083,167.07 462.083,166.522C462.083,165.974 462.426,165.358 463.111,164.673C463.796,163.988 465.577,163.509 468.453,163.235C471.33,162.961 474.481,161.933 477.905,160.152C481.33,158.372 483.59,157.413 484.686,157.276C485.782,157.139 486.741,157.207 487.563,157.481C488.385,157.755 488.933,158.988 489.207,161.18C489.481,163.372 489.96,165.289 490.645,166.933C491.33,168.577 492.563,170.016 494.344,171.248C496.125,172.481 497.906,173.166 499.686,173.303C500.577,173.372 501.467,173.44 502.358,173.509L502.358,172.07C502.358,171.111 501.604,169.194 500.097,166.317C498.591,163.44 496.878,161.385 494.96,160.152C493.043,158.92 492.084,158.029 492.084,157.481C492.084,156.933 492.289,156.454 492.7,156.043C493.111,155.632 493.727,155.289 494.549,155.015C495.371,154.741 496.604,154.604 498.248,154.604ZM454.686,169.605C457.152,170.016 459.138,170.7 460.645,171.659C462.152,172.618 464.412,174.605 467.426,177.618C470.44,180.632 473.796,183.577 477.494,186.454C479.344,187.892 481.193,189.331 483.042,190.769C482.426,191.454 481.81,192.139 481.193,192.824C479.96,194.194 479.001,195.701 478.316,197.345C477.631,198.988 477.494,200.838 477.905,202.893C478.316,204.947 479.07,207.002 480.166,209.057C481.262,211.112 482.084,212.139 482.631,212.139C483.179,212.139 483.796,211.865 484.481,211.317C485.166,210.769 486.056,209.947 487.152,208.851C488.248,207.756 489.07,206.66 489.618,205.564C490.166,204.468 490.371,203.166 490.234,201.66C490.097,200.153 489.481,198.372 488.385,196.317C487.289,194.262 486.741,192.961 486.741,192.413L486.741,191.591C488.659,192.139 490.577,192.687 492.495,193.235C496.33,194.331 499.275,194.331 501.33,193.235C502.358,192.687 503.385,192.139 504.412,191.591C504.549,192.207 504.686,192.824 504.823,193.44C505.097,194.673 505.714,195.906 506.673,197.139C507.632,198.372 509.139,199.673 511.193,201.043C513.248,202.413 515.919,203.851 519.207,205.358C520.851,206.112 522.495,206.865 524.139,207.619C523.454,208.098 522.769,208.577 522.084,209.057C520.714,210.016 519.276,211.386 517.769,213.167C516.262,214.947 515.234,216.797 514.687,218.715C514.139,220.632 513.796,222.756 513.659,225.084C513.522,227.413 513.522,228.715 513.659,228.989C513.796,229.263 514.481,229.331 515.714,229.194C516.947,229.057 518.317,228.441 519.824,227.345C521.33,226.249 522.632,224.537 523.728,222.208C524.824,219.879 525.509,217.687 525.783,215.632C526.056,213.578 526.33,212.55 526.604,212.55C526.878,212.55 527.221,213.852 527.632,216.454C528.043,219.057 528.248,221.454 528.248,223.646C528.248,225.838 527.7,227.55 526.604,228.783C525.509,230.016 523.591,231.523 520.851,233.304C518.111,235.085 516.262,236.728 515.303,238.235C514.344,239.742 513.659,241.317 513.248,242.961C513.043,243.783 512.837,244.605 512.632,245.427C513.317,245.496 514.002,245.564 514.687,245.633C516.056,245.77 517.837,245.496 520.029,244.811C522.221,244.126 523.796,242.824 524.755,240.907C525.714,238.989 526.399,237.208 526.81,235.564C527.221,233.92 527.632,233.03 528.043,232.893C528.248,232.824 528.454,232.756 528.659,232.687C528.728,235.085 528.796,237.482 528.865,239.879C529.002,244.674 526.673,249.057 521.878,253.03C517.084,257.003 514.139,260.085 513.043,262.277C511.947,264.468 511.399,266.112 511.399,267.208C511.399,268.304 511.947,270.222 513.043,272.962C514.139,275.701 515.166,277.688 516.125,278.921C517.084,280.153 518.248,281.181 519.618,282.003C520.988,282.825 521.673,283.51 521.673,284.058L521.673,284.879L518.591,284.879C516.536,284.879 513.659,283.167 509.96,279.742C506.262,276.318 503.728,274.605 502.358,274.605C500.988,274.605 500.166,274.948 499.892,275.633C499.755,275.975 499.618,276.318 499.481,276.66C500.303,276.866 501.125,277.071 501.947,277.277C503.591,277.688 504.686,278.167 505.234,278.715C505.782,279.263 506.056,280.016 506.056,280.975C506.056,281.934 505.645,282.619 504.823,283.03C504.002,283.441 503.111,283.51 502.152,283.236C501.193,282.962 499.549,281.592 497.221,279.126C494.892,276.66 491.536,273.92 487.152,270.907C482.768,267.893 478.179,265.29 473.385,263.098C468.59,260.907 463.933,259.879 459.412,260.016C454.892,260.153 451.878,259.674 450.371,258.578C448.864,257.482 447.494,256.181 446.261,254.674C445.028,253.167 443.864,251.249 442.768,248.92C441.672,246.592 440.439,243.03 439.069,238.235C437.7,233.441 436.878,227.824 436.604,221.386C436.33,214.947 436.535,210.564 437.22,208.235C437.905,205.906 439.069,203.646 440.713,201.454C442.357,199.262 444.343,197.413 446.672,195.906C447.837,195.153 449.001,194.399 450.165,193.646C450.371,194.331 450.576,195.016 450.782,195.701C451.193,197.071 451.946,198.44 453.042,199.81C454.138,201.18 455.987,202.413 458.59,203.509C461.193,204.605 463.111,205.153 464.344,205.153L466.193,205.153L466.193,202.276C466.193,200.358 465.987,198.92 465.577,197.961C465.166,197.002 464.207,195.906 462.7,194.673C461.193,193.44 459.481,192.481 457.563,191.797C456.604,191.454 455.645,191.112 454.686,190.769C455.987,190.29 457.289,189.81 458.59,189.331C461.193,188.372 463.248,186.933 464.755,185.016C466.261,183.098 466.946,181.865 466.809,181.317C466.741,181.043 466.672,180.769 466.604,180.495C465.166,180.838 463.727,181.18 462.289,181.522C459.412,182.207 456.946,183.235 454.892,184.605C453.864,185.29 452.837,185.975 451.809,186.66C451.946,185.975 452.083,185.29 452.22,184.605C452.494,183.235 452.494,182.139 452.22,181.317C451.946,180.495 451.535,179.605 450.987,178.646C450.439,177.687 449.891,177.207 449.344,177.207C448.796,177.207 447.837,177.961 446.467,179.468C445.097,180.975 444.275,182.207 444.001,183.166C443.727,184.125 443.659,184.947 443.796,185.632C443.933,186.317 444.412,187.002 445.234,187.687C446.056,188.372 446.467,188.988 446.467,189.536C446.467,190.084 445.371,191.386 443.179,193.44C440.987,195.495 439.549,196.454 438.864,196.317C438.179,196.18 437.905,194.742 438.042,192.002C438.179,189.262 438.59,186.591 439.275,183.988C439.96,181.385 440.987,178.92 442.357,176.591C443.727,174.262 444.96,172.618 446.056,171.659C447.152,170.7 448.248,170.016 449.344,169.605C450.439,169.194 452.22,169.194 454.686,169.605ZM392.836,169.605C395.713,169.742 398.384,170.358 400.85,171.454C403.316,172.55 405.576,174.194 407.631,176.385C408.835,177.669 409.874,179.024 410.749,180.45C411.367,181.457 411.903,182.5 412.357,183.577C413.453,186.18 414.138,189.947 414.412,194.879C414.686,199.81 414.343,205.769 413.384,212.756C412.425,219.742 411.261,225.564 409.891,230.222C408.521,234.879 406.809,239.468 404.754,243.989C402.699,248.509 400.987,251.592 399.617,253.235C398.247,254.879 396.603,256.386 394.686,257.756C392.768,259.126 389.412,260.907 384.617,263.098C379.822,265.29 375.85,266.66 372.699,267.208C369.548,267.756 363.932,268.03 355.85,268.03C347.767,268.03 342.836,268.236 341.055,268.646C339.274,269.057 337.836,269.811 336.74,270.907C335.644,272.003 334.891,274.194 334.48,277.482C334.069,280.77 333.315,282.482 332.219,282.619C331.123,282.756 330.164,282.619 329.343,282.208C328.521,281.797 327.425,280.838 326.055,279.331C324.685,277.825 324,276.249 324,274.605C324,272.962 324.206,271.934 324.616,271.523C325.027,271.112 325.438,269.948 325.849,268.03C326.26,266.112 326.192,263.852 325.644,261.249C325.096,258.646 323.863,255.838 321.945,252.824C320.027,249.811 317.699,247.139 314.959,244.811C312.219,242.482 310.849,238.783 310.849,233.715L310.849,226.112C313.315,228.509 315.781,230.906 318.247,233.304C323.178,238.098 327.836,241.865 332.219,244.605C336.603,247.345 339.548,248.92 341.055,249.331C342.562,249.742 345.713,249.811 350.507,249.537C352.904,249.4 355.302,249.263 357.699,249.126C355.37,248.852 353.041,248.578 350.713,248.304C346.055,247.756 343.247,247.139 342.288,246.455C341.808,246.112 341.329,245.77 340.849,245.427C341.329,244.879 341.808,244.331 342.288,243.783C343.247,242.687 344.411,240.77 345.781,238.03C347.151,235.29 347.836,232.619 347.836,230.016C347.836,228.715 347.425,226.112 347.219,226.112C346.808,226.112 345.987,226.728 344.754,227.961C343.521,229.194 342.493,230.495 341.671,231.865C340.849,233.235 340.302,234.263 340.028,234.948C339.754,235.633 339.617,237.139 339.617,239.468C339.617,241.797 339.48,243.167 339.206,243.578C338.932,243.989 338.315,244.194 337.356,244.194C336.397,244.194 334.959,243.646 333.041,242.55C331.123,241.454 327.699,238.715 322.767,234.331C317.836,229.948 314.822,226.66 313.726,224.468C312.63,222.276 312.151,220.427 312.288,218.92C312.425,217.413 312.699,216.386 313.11,215.838C313.52,215.29 313.931,215.016 314.342,215.016C314.753,215.016 315.37,216.249 316.192,218.715C317.014,221.18 318.384,222.824 320.301,223.646C322.219,224.468 323.795,225.427 325.027,226.523C326.26,227.619 327.082,228.578 327.493,229.4C327.904,230.222 329.822,230.975 330.164,231.043L330.164,226.728C330.164,223.852 329.822,221.728 329.137,220.358C328.452,218.989 327.151,217.824 325.233,216.865C323.315,215.906 321.534,215.221 319.89,214.81C318.247,214.399 317.014,213.92 316.192,213.372C315.37,212.824 314.959,212.345 314.959,211.934L314.959,211.317L321.74,211.317C326.26,211.317 328.932,211.18 329.753,210.906C330.575,210.632 331.534,210.153 332.63,209.468C333.726,208.783 334.822,207.619 335.918,205.975C337.014,204.331 337.562,203.235 337.562,202.687C337.562,202.413 334.274,201.865 332.63,201.865C329.343,201.865 326.192,202.756 323.178,204.536C320.164,206.317 318.11,207.345 317.014,207.619C315.918,207.893 314.959,207.619 314.137,206.797C313.315,205.975 313.041,204.673 313.315,202.893C313.589,201.112 314.616,199.81 316.397,198.988C318.178,198.166 320.986,197.618 324.822,197.345C328.658,197.071 331.123,196.591 332.219,195.906C333.315,195.221 334.411,194.331 335.507,193.235C336.603,192.139 337.699,190.632 338.795,188.714C339.891,186.796 340.439,184.947 340.439,183.166C340.439,181.385 340.233,179.742 339.822,178.235C339.411,176.728 339.411,175.701 339.822,175.153C340.233,174.605 340.986,174.331 342.082,174.331C343.178,174.331 344.411,174.605 345.781,175.153C347.151,175.701 349.069,175.974 351.534,175.974C354,175.974 356.809,175.701 359.959,175.153C363.11,174.605 365.918,174.331 368.384,174.331C370.85,174.331 372.22,174.536 372.494,174.947C372.768,175.358 372.836,176.111 372.699,177.207C372.562,178.303 372.151,179.399 371.466,180.495C370.781,181.591 369.891,182.55 368.795,183.372C367.699,184.194 366.535,184.536 365.302,184.399C364.069,184.262 363.041,183.783 362.22,182.961C361.398,182.139 360.37,181.522 359.137,181.112C357.904,180.701 356.055,180.632 353.589,180.906C351.124,181.18 349.48,181.522 348.658,181.933C348.247,182.139 347.836,182.344 347.425,182.55C347.699,182.892 347.973,183.235 348.247,183.577C348.795,184.262 350.165,185.29 352.356,186.66C354.548,188.029 357.082,188.714 359.959,188.714L364.274,188.714C363.247,190.29 362.22,191.865 361.192,193.44C359.137,196.591 358.247,199.605 358.521,202.482C358.795,205.358 359.343,207.55 360.165,209.057C360.987,210.564 361.672,211.386 362.22,211.523C362.767,211.66 363.589,211.112 364.685,209.879C365.781,208.646 366.74,207.139 367.562,205.358C368.384,203.577 368.658,200.084 368.384,194.879C368.11,189.673 368.932,186.112 370.85,184.194C372.768,182.276 374.822,179.742 377.014,176.591C379.206,173.44 380.85,171.591 381.946,171.043C383.042,170.495 384.411,170.084 386.055,169.81C387.699,169.536 389.959,169.468 392.836,169.605ZM327.699,171.865C328.521,171.865 329.137,172.139 329.548,172.687C329.959,173.235 330.096,174.057 329.959,175.153C329.822,176.248 328.384,177.344 325.644,178.44C322.904,179.536 320.438,180.29 318.247,180.701C316.055,181.112 314.89,181.454 314.753,181.728C314.616,182.002 315.37,182.687 317.014,183.783C318.658,184.879 320.37,185.495 322.151,185.632C323.932,185.769 325.575,185.427 327.082,184.605C328.589,183.783 329.753,182.892 330.575,181.933C330.986,181.454 331.397,180.975 331.808,180.495C332.014,180.906 332.219,181.317 332.425,181.728C332.836,182.55 332.973,183.509 332.836,184.605C332.699,185.701 331.671,186.933 329.753,188.303C327.836,189.673 324.959,190.838 321.123,191.797C317.288,192.755 315.027,193.166 314.342,193.029C313.657,192.892 312.699,192.207 311.466,190.975C310.233,189.742 309.274,188.509 308.589,187.276C307.904,186.043 307.562,184.468 307.562,182.55C307.562,180.632 307.904,179.262 308.589,178.44C309.274,177.618 310.027,177.07 310.849,176.796C311.671,176.522 313.178,176.385 315.37,176.385C317.562,176.385 319.342,176.18 320.712,175.769C322.082,175.358 323.384,174.605 324.616,173.509C325.849,172.413 326.877,171.865 327.699,171.865ZM513.043,177.618C514.961,178.92 516.878,180.221 518.796,181.522C522.632,184.125 525.646,185.975 527.837,187.07C530.029,188.166 532.221,188.714 534.413,188.714C536.605,188.714 538.317,188.372 539.55,187.687C540.783,187.002 542.153,186.591 543.659,186.454C545.166,186.317 546.399,186.317 547.358,186.454C548.317,186.591 549.618,187.207 551.262,188.303C552.906,189.399 553.591,190.358 553.317,191.18C553.043,192.002 551.125,192.618 547.564,193.029C544.002,193.44 541.468,193.988 539.961,194.673C538.454,195.358 537.152,196.454 536.057,197.961C534.961,199.468 534.276,200.838 534.002,202.071C533.865,202.687 533.728,203.303 533.591,203.92C534.55,203.44 535.509,202.961 536.468,202.482C538.385,201.523 540.988,201.043 544.276,201.043C547.564,201.043 549.892,200.564 551.262,199.605C552.632,198.646 553.659,197.276 554.344,195.495C555.029,193.714 555.714,192.481 556.399,191.797C557.084,191.112 558.659,190.221 561.125,189.125C563.591,188.029 565.303,187.481 566.262,187.481C567.221,187.481 567.838,187.618 568.112,187.892C568.386,188.166 568.591,189.194 568.728,190.975C568.865,192.755 568.454,196.317 567.495,201.66C566.536,207.002 565.851,209.81 565.44,210.084C565.029,210.358 564.276,209.742 563.18,208.235C562.084,206.728 559.413,205.838 555.166,205.564C550.92,205.29 547.632,205.495 545.303,206.18C542.974,206.865 541.057,207.824 539.55,209.057C538.043,210.29 536.947,211.454 536.262,212.55C535.577,213.646 535.029,214.194 534.618,214.194C534.207,214.194 533.933,213.509 533.796,212.139C533.659,210.769 533.248,209.331 532.563,207.824C531.878,206.317 530.851,204.947 529.481,203.714C528.111,202.482 526.467,201.523 524.55,200.838C522.632,200.153 520.851,199.262 519.207,198.166C517.563,197.071 515.714,195.358 513.659,193.029C511.604,190.701 510.44,188.646 510.166,186.865C509.892,185.084 510.303,183.098 511.399,180.906C511.947,179.81 512.495,178.714 513.043,177.618ZM300.575,180.084C302.219,180.084 303.452,180.358 304.274,180.906C305.096,181.454 305.507,182.344 305.507,183.577C305.507,184.81 305.781,186.18 306.329,187.687C306.877,189.194 307.219,192.002 307.356,196.112C307.493,200.221 307.493,202.55 307.356,203.098C307.219,203.646 306.808,204.194 306.123,204.742C305.438,205.29 304.068,205.495 302.014,205.358C299.959,205.221 297.698,204.81 295.233,204.125C292.767,203.44 290.233,202.276 287.63,200.632C285.027,198.988 280.879,194.927 280.622,192.975C280.365,191.023 281.123,189.536 281.671,188.714C282.219,187.892 283.794,186.66 286.397,185.016C289,183.372 291.602,182.139 294.205,181.317C296.808,180.495 298.931,180.084 300.575,180.084ZM279.411,200.427C280.643,200.838 282.63,202.276 285.37,204.742C288.109,207.208 289,209.331 288.041,211.112C287.082,212.893 286.534,214.81 286.397,216.865C286.26,218.92 286.534,220.632 287.219,222.002C287.904,223.372 289.205,224.879 291.123,226.523C293.041,228.167 294.342,228.989 295.027,228.989C295.712,228.989 296.26,228.372 296.671,227.139C297.082,225.906 297.424,223.852 297.698,220.975C297.972,218.098 297.424,215.495 296.055,213.167C295.37,212.002 294.685,210.838 294,209.673C295.507,209.536 297.013,209.399 298.52,209.262C301.534,208.988 303.726,209.262 305.096,210.084C306.466,210.906 307.356,212.276 307.767,214.194C308.178,216.112 307.972,220.084 307.151,226.112C306.329,232.139 305.712,235.29 305.301,235.564C304.89,235.838 303.794,235.975 302.014,235.975C300.233,235.975 299,235.838 298.315,235.564C297.63,235.29 296.055,234.263 293.589,232.482C291.123,230.701 288.657,228.578 286.191,226.112C283.726,223.646 281.465,220.016 279.411,215.221C277.356,210.427 276.26,207.071 276.123,205.153C275.986,203.235 276.191,201.865 276.739,201.043C277.287,200.221 278.178,200.016 279.411,200.427ZM550.646,211.728C551.125,211.865 551.605,212.002 552.084,212.139C550.783,212.893 549.481,213.646 548.18,214.399C545.577,215.906 543.454,217.55 541.81,219.331C540.166,221.112 539.344,222.687 539.344,224.057C539.344,225.427 539.55,226.454 539.961,227.139C540.372,227.824 540.988,228.509 541.81,229.194C542.632,229.879 543.728,230.222 545.098,230.222C546.468,230.222 547.632,230.016 548.591,229.605C549.55,229.194 550.166,228.578 550.44,227.756C550.714,226.934 549.892,225.427 549.618,224.057C549.344,222.687 549.55,221.317 550.235,219.947C550.92,218.578 552.016,217.276 553.522,216.043C555.029,214.81 556.125,214.331 556.81,214.605C557.495,214.879 558.249,215.632 559.07,216.865C559.892,218.098 560.44,219.331 560.714,220.564C560.988,221.797 560.988,222.756 560.714,223.441C560.44,224.126 559.687,225.221 558.454,226.728C557.221,228.235 555.372,229.811 552.906,231.454C550.44,233.098 547.974,234.468 545.509,235.564C543.043,236.66 540.92,237.276 539.139,237.413C537.358,237.55 536.125,236.66 535.44,234.742C534.755,232.824 534.413,230.906 534.413,228.989C534.413,227.071 534.824,224.879 535.646,222.413C536.468,219.947 537.632,217.893 539.139,216.249C540.646,214.605 542.7,213.372 545.303,212.55C547.906,211.728 549.687,211.454 550.646,211.728ZM426.741,241.317C427.015,241.591 427.289,241.865 427.563,242.139C428.11,242.687 428.932,244.331 430.028,247.071C431.124,249.811 432.357,251.66 433.727,252.619C435.097,253.578 435.782,254.674 435.782,255.907C435.782,257.14 435.234,258.098 434.138,258.783C433.042,259.468 432.22,259.742 431.672,259.605C431.124,259.468 430.165,258.304 428.795,256.112C427.426,253.92 426.741,250.907 426.741,247.071L426.741,241.317ZM307.562,245.838C308.52,246.181 309.479,246.523 310.438,246.865C312.356,247.55 314.068,248.715 315.575,250.359C317.082,252.003 318.315,253.715 319.274,255.496C320.233,257.277 320.712,259.742 320.712,262.893C320.712,266.044 320.233,268.236 319.274,269.468C318.315,270.701 317.63,271.318 317.219,271.318C316.808,271.318 316.329,269.879 315.781,267.003C315.233,264.126 314.205,261.934 312.699,260.427C311.192,258.92 308.041,257.14 307.562,256.934C307.493,258.578 307.425,260.222 307.356,261.866C307.219,265.153 307.493,267.414 308.178,268.646C308.863,269.879 309.89,271.044 311.26,272.14C311.945,272.688 312.63,273.236 313.315,273.784C313.11,273.92 312.904,274.057 312.699,274.194C312.288,274.468 311.192,274.331 309.411,273.784C307.63,273.236 306.192,272.482 305.096,271.523C304,270.564 302.904,269.057 301.808,267.003C300.712,264.948 299.822,262.825 299.137,260.633C298.452,258.441 298.178,257.14 298.315,256.729C298.452,256.318 299.342,255.975 300.986,255.701C302.63,255.427 304.068,254.879 305.301,254.057C306.534,253.235 307.356,252.345 307.767,251.386C308.178,250.427 308.246,249.263 307.972,247.893C307.836,247.208 307.699,246.523 307.562,245.838ZM409.686,252.003L410.713,252.003L410.713,253.03C410.713,253.715 410.234,255.085 409.275,257.14C408.316,259.194 405.302,262.756 400.234,267.825C395.165,272.893 388.521,277.345 380.302,281.181C372.083,285.016 365.85,287.071 361.603,287.345C359.48,287.482 357.356,287.619 355.233,287.756C356.74,286.112 358.247,284.469 359.754,282.825C362.767,279.537 365.233,277.825 367.151,277.688C369.069,277.551 371.124,277.756 373.315,278.304C375.507,278.852 377.494,279.058 379.274,278.921C381.055,278.784 382.357,278.304 383.179,277.482C384.001,276.66 384.48,275.633 384.617,274.4C384.685,273.784 384.754,273.167 384.822,272.551C384.343,273.03 383.864,273.51 383.384,273.989C382.425,274.948 381.192,275.496 379.685,275.633C378.179,275.77 376.192,275.427 373.726,274.605C371.261,273.784 369.754,273.03 369.206,272.345C368.932,272.003 368.658,271.66 368.384,271.318C370.439,271.181 372.494,271.044 374.548,270.907C378.658,270.633 382.014,269.811 384.617,268.441C387.22,267.071 388.795,266.386 389.343,266.386C389.891,266.386 391.809,265.359 395.096,263.304C398.384,261.249 401.466,258.852 404.343,256.112C407.22,253.372 409.001,252.003 409.686,252.003ZM418.11,260.222C418.932,260.222 419.48,260.427 419.754,260.838C420.028,261.249 420.302,262.345 420.576,264.126C420.85,265.907 420.645,267.071 419.96,267.619C419.275,268.167 418.316,268.236 417.083,267.825C416.467,267.619 415.85,267.414 415.234,267.208C415.371,267.619 415.508,268.03 415.645,268.441C415.919,269.263 416.467,269.948 417.288,270.496C418.11,271.044 418.864,271.318 419.549,271.318C420.234,271.318 420.85,271.181 421.398,270.907C421.946,270.633 422.699,269.674 423.658,268.03C424.617,266.386 425.302,265.564 425.713,265.564L426.33,265.564C426.193,266.455 426.056,267.345 425.919,268.236C425.645,270.016 424.754,271.318 423.247,272.14C421.741,272.962 418.864,273.441 414.617,273.578C410.371,273.715 407.357,274.468 405.576,275.838C403.795,277.208 402.357,278.647 401.261,280.153C400.165,281.66 399.412,283.03 399.001,284.263C398.59,285.496 397.55,292.198 397.276,293.921C396.998,295.668 397.169,297.273 397.234,298.677C397.36,301.409 398.482,303.454 399.206,304.811C400.302,306.866 401.535,307.47 402.905,308.018C404.275,308.566 405.508,309.537 406.603,309.537C407.699,309.537 409.343,309.195 411.535,308.51C413.727,307.825 415.919,306.387 418.11,304.195C420.302,302.003 421.112,300.085 421.934,298.441C422.756,296.797 422.402,295.851 422.265,294.207C422.128,292.563 420.746,291.398 419.514,290.714C418.281,290.029 417.345,288.989 413.224,288.989C409.8,288.989 411.719,289.195 410.623,289.606C409.527,290.017 407.175,290.77 406.353,291.866C405.531,292.962 404.424,294.469 404.424,296.386C404.424,298.304 404.766,298.281 405.451,299.103C406.136,299.925 406.466,301.237 407.836,301.648C409.206,302.059 410.234,302.196 410.919,302.059C411.603,301.922 412.288,302.208 412.973,301.523C413.658,300.839 414.206,300.085 414.617,299.263C415.028,298.441 415.691,297.63 415.725,296.797C415.759,295.948 414.701,295.23 414.126,294.868C413.552,294.507 411.745,293.935 412.276,294.627C414.528,297.565 414.058,299.42 410.999,299.96C409.773,300.176 408.509,300.382 407.961,299.138C407.649,298.428 407.836,297.14 407.836,296.181C407.836,295.222 408.384,294.332 409.48,293.51C410.576,292.688 411.946,292.208 413.59,292.071C415.234,291.934 416.535,292.768 417.494,293.179C418.453,293.59 418.932,293.989 418.932,295.77C418.932,297.551 418.316,299.263 417.083,300.907C415.85,302.551 414.617,303.715 413.384,304.4C412.151,305.085 410.645,306.193 408.864,306.33C407.083,306.467 404.948,305.428 403.852,304.606C402.756,303.784 402.631,302.619 402.083,301.113C401.535,299.606 401.329,297.756 401.466,295.565C401.603,293.373 402.083,291.592 402.905,290.222C403.727,288.852 404.823,287.825 406.192,287.14C407.562,286.455 409.343,285.415 411.535,285.415C413.727,285.415 416.684,285.199 419.013,286.158C421.342,287.117 423.818,288.213 425.051,289.445C426.284,290.678 426.205,293.018 426.205,295.073C426.205,297.128 425.165,299.537 424.48,300.907C423.795,302.277 422.78,304.755 420.04,306.947C417.301,309.138 414.766,310.645 412.437,311.467C410.109,312.289 406.386,312.7 404.754,312.7C402.425,312.7 400.508,311.455 399.001,310.359C397.494,309.263 396.535,308.099 396.124,306.866C395.713,305.633 393.977,302.893 393.703,298.647C393.43,294.4 394.891,290.975 395.302,288.373C395.713,285.77 396.74,283.03 398.384,280.153C400.028,277.277 401.055,275.77 401.466,275.633C401.877,275.496 402.768,274.468 404.138,272.551C405.508,270.633 407.22,268.646 409.275,266.592C411.33,264.537 413.11,262.962 414.617,261.866C416.124,260.77 417.288,260.222 418.11,260.222ZM526.604,260.838C528.796,261.249 530.235,261.729 530.92,262.277C531.604,262.825 532.289,263.715 532.974,264.948C533.659,266.181 534.07,268.03 534.207,270.496C534.344,272.962 534.07,274.742 533.385,275.838C532.7,276.934 531.947,277.756 531.125,278.304C530.303,278.852 529.413,279.126 528.454,279.126C527.495,279.126 526.536,278.852 525.577,278.304C524.618,277.756 523.454,276.523 522.084,274.605C521.399,273.647 520.714,272.688 520.029,271.729L522.289,271.729C523.796,271.729 525.029,271.523 525.988,271.112C526.947,270.701 527.906,269.948 528.865,268.852C529.824,267.756 530.44,266.729 530.714,265.77C530.851,265.29 530.988,264.811 531.125,264.331C529.892,264.194 528.659,264.057 527.426,263.92C524.961,263.646 523.248,263.646 522.289,263.92C521.33,264.194 520.372,264.742 519.413,265.564C518.933,265.975 518.454,266.386 517.974,266.797L517.974,264.742C517.974,263.372 518.865,262.277 520.645,261.455C522.426,260.633 524.413,260.427 526.604,260.838ZM440.919,268.03C443.248,268.304 445.371,268.989 447.289,270.085C449.207,271.181 451.056,272.619 452.837,274.4C454.618,276.181 456.33,278.441 457.974,281.181C459.618,283.921 460.645,285.975 461.056,287.345C461.467,288.715 461.672,290.222 461.672,291.866C461.672,293.51 461.193,295.291 460.234,297.208C459.275,299.126 457.905,300.839 456.124,302.345C454.344,303.852 453.179,304.332 452.631,303.784C452.083,303.236 452.289,301.249 453.248,297.825C454.207,294.4 454.686,291.455 454.686,288.989C454.686,286.523 454.549,284.948 454.275,284.263C454.001,283.578 453.59,282.825 453.042,282.003C452.494,281.181 451.33,280.222 449.549,279.126C447.768,278.03 445.508,277.482 442.768,277.482C440.028,277.482 438.111,277.277 437.015,276.866C435.919,276.455 435.097,275.77 434.549,274.811C434.001,273.852 433.727,272.688 433.727,271.318C433.727,269.948 434.343,268.989 435.576,268.441C436.809,267.893 438.59,267.756 440.919,268.03ZM350.507,271.729C353.658,271.729 355.644,271.866 356.466,272.14C357.288,272.414 357.973,272.893 358.521,273.578C359.069,274.263 359.343,275.016 359.343,275.838C359.343,276.66 359.069,277.482 358.521,278.304C357.973,279.126 357.493,279.537 357.082,279.537C356.672,279.537 356.055,279.058 355.233,278.099C354.411,277.14 353.589,276.455 352.767,276.044C351.945,275.633 350.644,275.427 348.863,275.427C347.082,275.427 345.781,275.633 344.959,276.044C344.137,276.455 343.521,277.14 343.11,278.099C342.904,278.578 342.699,279.058 342.493,279.537C343.589,279.4 344.685,279.263 345.781,279.126C347.973,278.852 349.411,278.852 350.096,279.126C350.781,279.4 351.329,279.879 351.74,280.564C352.151,281.249 352.219,282.14 351.945,283.236C351.671,284.332 350.439,285.496 348.247,286.729C346.055,287.962 344.617,288.373 343.932,287.962C343.247,287.551 342.356,286.523 341.26,284.879C340.165,283.236 339.411,281.386 339,279.331C338.589,277.277 338.589,275.838 339,275.016C339.411,274.194 340.644,273.441 342.699,272.756C344.754,272.071 347.356,271.729 350.507,271.729ZM465.782,273.784C466.878,273.784 468.59,274.263 470.919,275.222C473.248,276.181 474.892,277.345 475.851,278.715C476.81,280.085 477.426,281.455 477.7,282.825C477.974,284.195 478.111,286.523 478.111,289.811C478.111,293.099 477.563,295.291 476.467,296.386C475.919,296.934 475.371,297.482 474.823,298.03C474.549,297.619 474.275,297.208 474.001,296.797C473.453,295.975 472.974,293.441 472.563,289.195C472.357,287.071 472.152,284.948 471.946,282.825C471.809,282.962 471.672,283.099 471.535,283.236C471.262,283.51 470.919,285.564 470.508,289.4C470.097,293.236 470.371,296.318 471.33,298.647C472.289,300.976 472.152,302.688 470.919,303.784C469.686,304.88 468.453,305.222 467.22,304.811C465.987,304.4 465.166,303.921 464.755,303.373C464.344,302.825 464.138,301.934 464.138,300.702C464.138,299.469 464.618,297.414 465.577,294.537C466.535,291.66 467.015,289.4 467.015,287.756C467.015,286.112 466.33,283.647 464.96,280.359C463.59,277.071 463.111,275.153 463.522,274.605C463.933,274.057 464.686,273.784 465.782,273.784ZM481.81,276.66L483.659,276.66C484.892,276.66 485.988,276.866 486.947,277.277C487.905,277.688 489.138,278.578 490.645,279.948C492.152,281.318 493.385,282.825 494.344,284.469C495.303,286.112 495.988,287.893 496.399,289.811C496.81,291.729 496.947,293.647 496.81,295.565C496.741,296.523 496.673,297.482 496.604,298.441C495.645,297.756 494.686,297.071 493.727,296.386C491.81,295.017 490.097,294.126 488.59,293.715C487.084,293.304 486.056,292.825 485.508,292.277C484.96,291.729 484.344,290.496 483.659,288.578C482.974,286.66 482.494,284.195 482.221,281.181C482.084,279.674 481.947,278.167 481.81,276.66ZM418.521,278.555C420.987,278.555 423.807,278.2 425.588,278.885C427.369,279.57 431.24,282.036 433.021,286.283C433.874,288.318 433.651,292.59 433.897,294.459C434.165,296.49 433.468,298.151 433.397,298.852C433.119,301.581 432.015,304.058 431.056,306.25C430.097,308.441 428.932,310.291 427.563,311.798C426.193,313.304 424.549,314.4 422.631,315.085C420.713,315.77 419.138,316.729 417.905,317.962C416.672,319.195 415.919,320.154 415.645,320.839C415.508,321.181 415.371,321.524 415.234,321.866C416.809,321.113 418.384,320.359 419.96,319.606C423.11,318.099 425.302,317.277 426.535,317.14C427.768,317.003 429.275,317.14 431.056,317.551C432.837,317.962 434.343,318.51 435.576,319.195C436.809,319.88 438.179,321.181 439.686,323.099C441.193,325.017 441.809,326.524 441.535,327.62C441.261,328.715 440.576,329.674 439.48,330.496C438.385,331.318 436.878,331.729 434.96,331.729C433.042,331.729 431.056,330.976 429.001,329.469C426.946,327.962 424.275,326.935 420.987,326.387C417.699,325.839 415.028,325.702 412.973,325.976C410.919,326.25 408.521,326.866 405.782,327.825C403.042,328.784 400.508,329.263 398.179,329.263C395.85,329.263 394.549,329.058 394.275,328.647C394.001,328.236 394.001,326.866 394.275,324.537C394.549,322.209 395.096,320.565 395.918,319.606C396.74,318.647 397.631,318.236 398.59,318.373C399.549,318.51 400.302,318.921 400.85,319.606C401.398,320.291 402.151,320.839 403.11,321.25C404.069,321.661 405.371,321.798 407.014,321.661C408.658,321.524 409.891,321.25 410.713,320.839C411.535,320.428 411.695,319.931 411.946,319.606C412.643,318.703 413.339,317.802 413.339,317.596C412.38,317.596 410.028,319.686 409.069,319.686L406.192,319.686C405.495,319.686 399.922,316.214 399.922,315.872C399.922,315.187 406.359,316.98 407.917,316.81C410.728,316.503 411.433,315.085 413.625,314.674C415.817,314.263 415.713,313.578 417.494,312.619C419.275,311.661 421.124,310.291 423.042,308.51C424.96,306.729 426.398,305.154 427.357,303.784C428.316,302.414 429.001,301.113 429.412,299.88C429.823,298.647 430.725,298.042 430.725,296.672C430.725,295.303 431.147,293.236 430.599,291.866C430.051,290.496 430.063,287.939 429.242,286.98C428.42,286.021 425.999,285.199 424.766,284.514C423.533,283.829 420.234,283.144 416.261,282.459C414.275,282.117 412.288,283.167 410.302,282.825C410.371,282.619 410.439,282.414 410.508,282.208C410.645,281.797 411.398,280.621 412.768,280.073C414.138,279.525 416.056,278.555 418.521,278.555ZM442.152,282.003C444.206,282.003 445.782,282.208 446.878,282.619C447.974,283.03 448.796,283.578 449.344,284.263C449.891,284.948 450.302,286.66 450.576,289.4C450.85,292.14 450.645,294.332 449.96,295.975C449.617,296.797 449.275,297.619 448.933,298.441C447.905,297.756 446.878,297.071 445.85,296.386C443.796,295.017 442.152,293.578 440.919,292.071C439.686,290.564 438.864,288.852 438.453,286.934C438.042,285.016 438.042,283.715 438.453,283.03C438.864,282.345 440.097,282.003 442.152,282.003ZM388.932,287.14C389.754,287.551 390.233,288.03 390.37,288.578C390.507,289.126 390.781,293.51 391.192,301.729C391.603,309.948 391.192,314.674 389.959,315.907C388.727,317.14 387.357,317.756 385.85,317.756C384.343,317.756 382.699,317.414 380.918,316.729C379.137,316.044 378.11,315.085 377.836,313.852C377.562,312.619 378.384,311.318 380.302,309.948C382.22,308.578 383.384,307.551 383.795,306.866C384.206,306.181 384.548,305.154 384.822,303.784C385.096,302.414 385.096,301.113 384.822,299.88C384.548,298.647 383.932,297.345 382.973,295.975C382.014,294.606 380.644,293.852 378.863,293.715C377.973,293.647 377.083,293.578 376.192,293.51C377.425,292.619 378.658,291.729 379.891,290.838C382.357,289.058 384.274,287.893 385.644,287.345C387.014,286.797 388.11,286.729 388.932,287.14ZM512.632,289.195C515.919,289.332 517.906,289.948 518.591,291.044C519.276,292.14 519.618,293.647 519.618,295.565C519.618,297.482 519.276,299.126 518.591,300.496C517.906,301.866 517.015,303.03 515.919,303.989C514.824,304.948 513.317,305.496 511.399,305.633C509.481,305.77 507.632,305.428 505.851,304.606C504.07,303.784 503.591,301.386 504.412,297.414C505.234,293.441 505.988,291.044 506.673,290.222C507.358,289.4 509.344,289.058 512.632,289.195ZM338.589,290.222C339.822,290.222 340.986,290.564 342.082,291.249C343.178,291.934 346.26,292.277 351.329,292.277L358.932,292.277L358.932,292.893C358.932,293.304 357.836,294.332 355.644,295.975C353.452,297.619 351.055,299.126 348.452,300.496C345.85,301.866 343.863,302.551 342.493,302.551C341.123,302.551 339.754,302.208 338.384,301.523C337.014,300.839 335.918,300.017 335.096,299.058C334.274,298.099 333.932,296.934 334.069,295.565C334.206,294.195 334.685,292.962 335.507,291.866C336.329,290.77 337.356,290.222 338.589,290.222ZM366.535,293.51L367.562,293.51C367.494,293.784 367.425,294.058 367.357,294.332C367.22,294.88 366.055,296.181 363.863,298.236C361.672,300.291 359.617,302.962 357.699,306.25C355.781,309.537 354.411,311.25 353.589,311.387C352.767,311.524 351.534,311.044 349.891,309.948C348.247,308.852 347.356,307.893 347.219,307.071C347.082,306.25 348.384,305.154 351.124,303.784C353.863,302.414 356.945,300.359 360.37,297.619C363.795,294.88 365.85,293.51 366.535,293.51ZM484.07,295.565C485.029,295.565 486.193,295.907 487.563,296.592C488.933,297.277 490.303,298.373 491.673,299.88C493.043,301.386 493.59,303.03 493.316,304.811C493.043,306.592 492.015,308.373 490.234,310.154C488.453,311.935 487.015,313.167 485.919,313.852C484.823,314.537 483.933,314.811 483.248,314.674C482.563,314.537 482.289,313.373 482.426,311.181C482.563,308.989 482.905,307.414 483.453,306.455C484.001,305.496 484.549,304.948 485.097,304.811C485.645,304.674 486.125,305.291 486.536,306.66C486.947,308.03 487.358,308.715 487.768,308.715C488.179,308.715 488.59,308.304 489.001,307.482C489.412,306.66 489.618,305.565 489.618,304.195C489.618,302.825 489.275,301.66 488.59,300.702C487.905,299.743 486.604,299.263 484.686,299.263C482.768,299.263 481.399,299.606 480.577,300.291C479.755,300.976 478.864,302.688 477.905,305.428C476.946,308.167 476.399,310.77 476.262,313.236C476.125,315.702 474.96,316.935 472.768,316.935C470.577,316.935 467.974,316.592 464.96,315.907C461.946,315.222 460.166,314.674 459.618,314.263C459.07,313.852 458.659,313.099 458.385,312.003C458.111,310.907 458.453,309.606 459.412,308.099C460.371,306.592 461.124,305.839 461.672,305.839C462.22,305.839 463.179,306.387 464.549,307.482C465.919,308.578 467.494,309.058 469.275,308.921C471.056,308.784 472.837,307.893 474.618,306.25C476.399,304.606 478.179,302.414 479.96,299.674C481.741,296.934 483.111,295.565 484.07,295.565ZM440.508,299.058C441.467,299.469 443.522,301.592 446.672,305.428C449.823,309.263 451.741,312.208 452.426,314.263C453.111,316.318 453.59,319.743 453.864,324.537C454.001,326.935 454.138,329.332 454.275,331.729C452.974,331.661 451.672,331.592 450.371,331.524C449.07,331.455 447.768,331.387 446.467,331.318C446.604,330.907 446.741,330.496 446.878,330.085C447.152,329.263 447.22,327.688 447.083,325.359C446.946,323.03 444.823,320.085 440.713,316.524C436.604,312.962 434.617,310.496 434.754,309.126C434.891,307.756 435.302,306.729 435.987,306.044C436.672,305.359 437.22,304.537 437.631,303.578C438.042,302.619 438.248,301.592 438.248,300.496C438.248,299.4 438.385,298.784 438.659,298.647C438.932,298.51 439.549,298.647 440.508,299.058ZM379.48,299.88C379.754,300.017 379.891,300.702 379.891,301.934C379.891,303.167 379.548,304.263 378.863,305.222C378.179,306.181 377.357,306.729 376.398,306.866C375.439,307.003 374.48,306.66 373.521,305.839C372.562,305.017 372.014,303.852 371.877,302.345C371.809,301.592 371.74,300.839 371.672,300.085C372.494,300.291 373.315,300.496 374.137,300.702C375.781,301.113 377.014,301.044 377.836,300.496C378.658,299.948 379.206,299.743 379.48,299.88ZM366.124,304.606C366.535,304.606 368.041,305.976 370.644,308.715C373.247,311.455 374.754,313.647 375.165,315.291C375.576,316.935 375.576,318.099 375.165,318.784C374.754,319.469 373.247,319.811 370.644,319.811C368.041,319.811 366.055,319.126 364.685,317.756C363.315,316.387 362.493,314.469 362.22,312.003C361.946,309.537 362.425,307.688 363.658,306.455C364.891,305.222 365.713,304.606 366.124,304.606ZM464.344,321.25C468.59,321.935 470.988,322.551 471.535,323.099C471.809,323.373 472.083,323.647 472.357,323.921C470.919,324.811 469.481,325.702 468.042,326.592C465.166,328.373 463.248,329.4 462.289,329.674C461.33,329.948 460.576,329.948 460.029,329.674C459.481,329.4 458.933,328.715 458.385,327.62C457.837,326.524 457.494,325.222 457.357,323.715C457.22,322.209 457.289,321.25 457.563,320.839C457.837,320.428 460.097,320.565 464.344,321.25ZM279.011,111.059C279.011,111.059 282.552,111.199 285.428,112.569C288.305,113.939 291.466,116.248 293.794,116.796C294.959,117.07 296.123,117.344 297.287,117.618C295.37,119.673 293.452,121.727 291.534,123.782C287.698,127.892 284.685,131.385 282.493,134.262C280.301,137.139 278.52,139.81 277.15,142.276C275.78,144.741 274.411,147.824 273.041,151.522C271.671,155.221 270.506,160.221 269.548,166.522C268.589,172.824 268.041,178.783 267.904,184.399C267.767,190.016 267.904,194.947 268.315,199.194C268.726,203.44 269.411,207.345 270.369,210.906C271.328,214.468 272.561,217.756 274.068,220.769C275.575,223.783 277.219,226.317 279,228.372C280.78,230.427 283.52,232.619 287.219,234.948C290.918,237.276 294.822,239.468 298.931,241.523C300.986,242.55 303.041,243.578 305.096,244.605C304,245.701 302.904,246.797 301.808,247.893C299.616,250.085 298.315,251.181 297.904,251.181C297.493,251.181 297.219,250.564 297.082,249.331C296.945,248.098 296.123,246.66 294.616,245.016C293.109,243.372 291.534,242.002 289.89,240.907C288.246,239.811 283.178,237.276 282.904,237.413C282.63,237.55 282.493,238.92 282.493,241.523C282.493,244.126 282.698,246.044 283.109,247.276C283.52,248.509 284.068,249.537 284.753,250.359C285.438,251.181 286.26,251.66 287.219,251.797C288.178,251.934 289.479,252.893 291.123,254.674C292.767,256.455 294.274,259.331 295.644,263.304C297.013,267.277 298.383,270.359 299.753,272.551C301.123,274.742 303.178,276.66 305.918,278.304C308.657,279.948 312.014,281.318 315.986,282.414C319.959,283.51 322.973,284.606 325.027,285.701C327.082,286.797 328.589,287.893 329.548,288.989C330.507,290.085 330.986,291.112 330.986,292.071C330.986,293.03 330.644,294.058 329.959,295.154C329.274,296.249 329.069,297.482 329.343,298.852C329.617,300.222 330.438,301.523 331.808,302.756C333.178,303.989 334.822,304.811 336.74,305.222C338.658,305.633 340.233,306.181 341.466,306.866C342.699,307.551 345.576,310.154 350.096,314.674C354.617,319.195 358.384,321.935 361.398,322.894C364.411,323.852 368.795,324.332 374.548,324.332C380.302,324.332 383.658,324.674 384.617,325.359C385.576,326.044 386.535,327.414 387.494,329.469C388.453,331.524 389.412,332.962 390.37,333.784C391.329,334.606 393.179,335.017 395.918,335.017C398.658,335.017 403.179,334.4 409.48,333.168C415.782,331.935 419.275,331.387 419.96,331.524C420.645,331.661 422.562,332.757 425.713,334.811C428.864,336.866 431.672,338.236 434.138,338.921C436.604,339.606 438.795,339.948 440.713,339.948C442.631,339.948 455.713,337.226 462.905,334.811C470.097,332.397 480.577,323.784 482.221,322.688C483.864,321.592 487.152,319.126 492.084,315.291C497.015,311.455 499.823,309.4 500.508,309.126C501.193,308.852 503.522,308.852 507.495,309.126C511.467,309.4 514.207,309.126 515.714,308.304C517.221,307.482 518.796,306.25 520.44,304.606C522.084,302.962 523.454,300.496 524.55,297.208C525.646,293.921 526.741,291.249 527.837,289.195C528.933,287.14 530.851,285.222 533.591,283.441C536.331,281.66 538.659,279.742 540.577,277.688C542.495,275.633 544.07,273.304 545.303,270.701C546.536,268.099 547.29,265.975 547.564,264.331C547.837,262.688 548.111,261.866 548.385,261.866C548.659,261.866 549.002,262.414 549.413,263.509C549.824,264.605 550.44,265.359 551.262,265.77C552.084,266.181 554.139,265.701 557.427,264.331C560.714,262.962 562.358,262.003 562.358,261.455C562.358,260.907 561.947,260.222 561.125,259.4C560.303,258.578 559.002,257.961 557.221,257.55C555.44,257.14 554.413,256.66 554.139,256.112C554.002,255.838 553.865,255.564 553.728,255.29C554.413,255.085 555.098,254.879 555.783,254.674C557.153,254.263 558.659,253.372 560.303,252.003C561.947,250.633 563.249,248.989 564.207,247.071C565.166,245.153 565.714,243.441 565.851,241.934C565.92,241.18 565.988,240.427 566.057,239.674C564.755,239.948 563.454,240.222 562.153,240.496C559.55,241.044 557.221,241.865 555.166,242.961C553.112,244.057 551.399,245.496 550.029,247.276C548.659,249.057 547.358,251.455 546.125,254.468C544.892,257.482 543.796,259.4 542.837,260.222C541.879,261.044 540.988,261.455 540.166,261.455C539.344,261.455 538.454,261.181 537.495,260.633C536.536,260.085 535.303,258.92 533.796,257.14C532.289,255.359 531.536,254.126 531.536,253.441C531.536,252.756 532.358,251.455 534.002,249.537C535.646,247.619 537.015,246.318 538.111,245.633C539.207,244.948 542.837,243.578 549.002,241.523C555.166,239.468 559.002,238.098 560.509,237.413C562.016,236.728 563.071,236.148 564.002,234.331C564.933,232.514 565.783,230.358 568.523,222.413C571.262,214.468 573.043,208.577 573.865,204.742C574.687,200.906 575.098,197.139 575.098,193.44C575.098,189.742 574.687,186.66 573.865,184.194C573.043,181.728 571.399,179.194 568.934,176.591C566.468,173.988 564.413,172.344 562.769,171.659C561.125,170.974 558.796,170.495 555.783,170.221C552.769,169.947 551.194,170.153 551.057,170.837C550.92,171.522 551.399,172.55 552.495,173.92C553.591,175.29 555.098,176.659 557.016,178.029C557.975,178.714 558.933,179.399 559.892,180.084C556.81,179.947 553.728,179.81 550.646,179.673C544.481,179.399 539.413,179.81 535.44,180.906C531.467,182.002 528.659,182.276 527.015,181.728C525.372,181.18 523.454,179.879 521.262,177.824C519.07,175.769 517.632,174.605 516.947,174.331C516.262,174.057 515.851,173.303 515.714,172.07C515.577,170.837 515.577,169.673 515.714,168.577C515.851,167.481 516.056,166.796 516.33,166.522C516.604,166.248 517.221,166.111 518.18,166.111C519.139,166.111 520.782,167.276 523.111,169.605C525.44,171.933 526.947,173.235 527.632,173.509C528.317,173.783 529.824,173.92 532.152,173.92C534.481,173.92 537.289,173.235 540.577,171.865C543.865,170.495 547.153,168.509 550.44,165.906C553.728,163.303 555.646,162.139 556.194,162.413C556.742,162.687 557.016,163.029 557.016,163.44C557.016,163.851 557.427,164.536 558.249,165.495C559.07,166.454 560.235,167.276 561.742,167.961C563.249,168.646 565.098,168.92 567.29,168.783C569.482,168.646 570.92,168.44 571.605,168.166C572.29,167.892 572.632,167.55 572.632,167.139C572.632,166.728 572.153,165.426 571.194,163.235C570.235,161.043 569.276,159.331 568.317,158.098C567.358,156.865 566.331,156.043 565.235,155.632C564.139,155.221 562.838,155.152 561.331,155.426C560.577,155.563 559.824,155.7 559.07,155.837C559.481,154.741 559.892,153.646 560.303,152.55C561.125,150.358 561.81,147.755 562.358,144.741C562.906,141.728 563.18,139.399 563.18,137.755C563.18,136.111 562.906,133.988 562.358,131.385C561.81,128.782 560.851,125.563 559.481,121.727C558.112,117.892 556.673,114.673 555.166,112.07C553.659,109.467 551.742,106.727 549.413,103.851C547.084,100.974 544.755,98.44 542.426,96.248C541.262,95.152 540.098,94.056 538.933,92.96C539.892,92.823 540.851,92.686 541.81,92.549C543.728,92.275 545.372,91.796 546.742,91.111C548.111,90.426 549.002,89.741 549.413,89.056C549.618,88.714 549.824,88.371 550.029,88.028C548.111,87.481 546.194,86.933 544.276,86.385C540.44,85.289 537.358,84.741 535.029,84.741C532.7,84.741 529.413,83.165 525.166,80.015C520.919,76.864 518.796,75.152 518.796,74.878C518.796,74.604 516.604,73.439 512.221,71.385C507.837,69.33 504.412,68.097 501.947,67.686C500.714,67.48 499.481,67.275 498.248,67.07C498.591,66.659 498.933,66.248 499.275,65.837C499.96,65.015 501.399,64.193 503.591,63.371C505.782,62.549 507.358,61.59 508.317,60.494C509.276,59.398 509.755,57.823 509.755,55.768C509.755,53.713 509.481,52.206 508.933,51.247C508.385,50.289 506.81,49.946 504.207,50.22C501.604,50.494 499.823,50.837 498.864,51.247C497.906,51.658 497.015,52.275 496.193,53.097C495.371,53.919 494.96,56.111 494.96,59.672C494.96,63.234 494.686,65.426 494.138,66.248C493.59,67.07 493.111,67.48 492.7,67.48C492.289,67.48 491.056,67.207 489.001,66.659C486.947,66.111 484.344,65.015 481.193,63.371C478.042,61.727 474.618,60.768 470.919,60.494C469.07,60.357 467.22,60.22 465.371,60.083C466.672,58.576 467.974,57.069 469.275,55.563C471.878,52.549 473.248,50.152 473.385,48.371C473.522,46.59 473.248,45.357 472.563,44.672C471.878,43.987 470.645,44.124 468.864,45.083C467.083,46.042 465.782,46.932 464.96,47.754C464.138,48.576 463.385,49.535 462.7,50.631C462.015,51.727 461.193,53.85 460.234,57.001C459.275,60.152 456.946,62.275 453.248,63.371C451.398,63.919 449.549,64.467 447.7,65.015C447.974,63.165 448.248,61.316 448.522,59.467C449.07,55.768 449.138,52.069 448.727,48.371C448.316,44.672 447.837,42.275 447.289,41.179C446.741,40.083 445.713,38.782 444.206,37.275C442.7,35.768 441.056,34.535 439.275,33.576C437.494,32.617 435.919,31.932 434.549,31.521C433.179,31.11 430.439,30.768 426.33,30.494C422.22,30.22 419.343,30.22 417.699,30.494C416.056,30.768 413.932,31.453 411.33,32.549C408.727,33.645 406.329,35.083 404.138,36.864C401.946,38.645 400.439,40.151 399.617,41.384C398.795,42.617 398.247,44.672 397.973,47.549C397.699,50.426 397.836,52.549 398.384,53.919C398.658,54.604 398.932,55.289 399.206,55.974C396.672,55.426 394.138,54.878 391.603,54.33C386.535,53.234 383.932,52.412 383.795,51.864C383.658,51.316 383.864,50.357 384.411,48.987C384.959,47.617 385.096,46.042 384.822,44.261C384.548,42.48 383.795,41.042 382.562,39.946C381.329,38.85 379.548,37.96 377.22,37.275C376.055,36.932 374.891,36.59 373.726,36.247C374.206,37.96 372.36,40.08 372.84,41.792C373.799,45.217 376.165,47.538 377.124,49.319C377.603,50.21 379,50.973 379.48,51.864C377.562,52.138 375.644,52.412 373.726,52.686C369.891,53.234 366.809,54.398 364.48,56.179C362.151,57.96 359.891,58.987 357.699,59.261C356.603,59.398 355.507,59.535 354.411,59.672C354.48,58.782 354.548,57.891 354.617,57.001C354.754,55.22 354.617,53.919 354.206,53.097C353.795,52.275 352.973,51.521 351.74,50.837C350.507,50.152 342.699,49.604 342.699,49.604C342.699,49.604 342.836,51.727 343.521,53.919C344.206,56.111 344.891,57.549 345.576,58.234C346.26,58.919 347.219,59.535 348.452,60.083C349.069,60.357 349.685,60.631 350.302,60.905C347.151,62.138 344,63.371 340.849,64.604C334.548,67.07 329.274,69.467 325.027,71.796C320.781,74.124 317.493,76.727 315.164,79.604C312.836,82.481 310.438,86.111 307.972,90.494C305.507,94.878 303.452,99.467 301.808,104.262C300.986,106.659 300.164,109.056 299.342,111.453C298.315,111.042 297.287,110.631 296.26,110.221C294.205,109.399 291.534,109.125 288.246,109.399" style="fill:rgb(101,1,144);fill-rule:nonzero;"/>
                </g>
            </g>
        </g>
    </g>
</svg>
